<svg width="214" height="31" viewBox="0 0 214 31" fill="none" xmlns="http://www.w3.org/2000/svg">
<path d="M16.7376 30H0.6264V0.991999H16.7376V7.4992H7.7216V12.0072H16.4632V18.5144H7.7216V23.4928H16.7376V30ZM43.0534 21.7288C42.4262 24.3944 41.0542 26.5635 38.9374 28.236C36.8206 29.8824 34.3902 30.7056 31.6462 30.7056C28.4056 30.7056 25.6486 29.5819 23.375 27.3344C21.1275 25.0869 20.0038 22.3299 20.0038 19.0632C20.0038 15.8488 21.1144 13.1179 23.3358 10.8704C25.5571 8.62293 28.275 7.4992 31.4894 7.4992C34.3118 7.4992 36.7944 8.33547 38.9374 10.008C41.0803 11.6805 42.4392 13.8888 43.0142 16.6328H36.4286C35.4878 14.5944 33.8675 13.5752 31.5678 13.5752C30.052 13.5752 28.8368 14.1109 27.9222 15.1824C27.0075 16.2539 26.5502 17.5605 26.5502 19.1024C26.5502 20.6704 27.0206 21.9901 27.9614 23.0616C28.9283 24.1069 30.1827 24.6296 31.7246 24.6296C33.8414 24.6296 35.4094 23.6627 36.4286 21.7288H43.0534ZM65.6852 10.8312C67.9327 13.0264 69.0564 15.7835 69.0564 19.1024C69.0564 22.4213 67.9327 25.1784 65.6852 27.3736C63.4639 29.5688 60.6807 30.6664 57.3356 30.6664C53.9906 30.6664 51.1943 29.5688 48.9468 27.3736C46.7255 25.1784 45.6148 22.4213 45.6148 19.1024C45.6148 15.7835 46.7255 13.0264 48.9468 10.8312C51.1943 8.636 53.9906 7.5384 57.3356 7.5384C60.6807 7.5384 63.4639 8.636 65.6852 10.8312ZM61.0596 22.9832C62.0527 21.8856 62.5492 20.592 62.5492 19.1024C62.5492 17.6128 62.0527 16.3323 61.0596 15.2608C60.0666 14.1632 58.8252 13.6144 57.3356 13.6144C55.846 13.6144 54.6047 14.1632 53.6116 15.2608C52.6186 16.3323 52.122 17.6128 52.122 19.1024C52.122 20.592 52.6186 21.8856 53.6116 22.9832C54.6047 24.0547 55.846 24.5904 57.3356 24.5904C58.8252 24.5904 60.0666 24.0547 61.0596 22.9832ZM106.14 30H99.633V18.436C99.633 16.9464 99.4109 15.7704 98.9666 14.908C98.5485 14.0456 97.66 13.6144 96.301 13.6144C93.8968 13.6144 92.6946 15.1171 92.6946 18.1224V30H86.1874V18.1616C86.1874 15.1301 85.1029 13.6144 82.9338 13.6144C80.4773 13.6144 79.249 15.2216 79.249 18.436V30H72.7418V8.244H78.8178V10.5568H78.8962C80.0461 8.5184 82.0453 7.4992 84.8938 7.4992C87.6901 7.4992 89.7808 8.7928 91.1658 11.38C92.8122 8.7928 95.112 7.4992 98.065 7.4992C100.443 7.4992 102.351 8.23093 103.788 9.6944C104.18 10.1125 104.52 10.5176 104.807 10.9096C105.095 11.3016 105.317 11.772 105.474 12.3208C105.657 12.8435 105.787 13.2485 105.866 13.536C105.97 13.8235 106.036 14.3331 106.062 15.0648C106.114 15.7965 106.14 16.2669 106.14 16.476C106.14 16.6589 106.14 17.2077 106.14 18.1224V30Z" fill="black"/>
<path d="M139.764 19.1416C138.928 22.5651 137.151 25.3221 134.433 27.4128C131.741 29.5035 128.631 30.5488 125.103 30.5488C120.87 30.5488 117.263 29.0984 114.284 26.1976C111.305 23.2707 109.815 19.6904 109.815 15.4568C109.815 11.2232 111.292 7.66906 114.245 4.7944C117.198 1.8936 120.791 0.443199 125.025 0.443199C127.664 0.443199 130.095 1.0312 132.316 2.2072C134.537 3.3832 136.367 5.0688 137.804 7.264C138.849 8.832 139.503 10.4131 139.764 12.0072H132.002C131.428 10.4915 130.513 9.27627 129.258 8.3616C128.004 7.4208 126.58 6.9504 124.986 6.9504C122.712 6.9504 120.844 7.78667 119.38 9.4592C117.943 11.1056 117.224 13.0917 117.224 15.4176C117.224 17.7435 117.943 19.7688 119.38 21.4936C120.844 23.1923 122.725 24.0416 125.025 24.0416C126.593 24.0416 127.978 23.5973 129.18 22.7088C130.382 21.8203 131.323 20.6312 132.002 19.1416H139.764ZM159.718 30H143.607V0.991999H159.718V7.4992H150.702V12.0072H159.444V18.5144H150.702V23.4928H159.718V30ZM193.678 15.496C193.678 19.7557 192.188 23.336 189.209 26.2368C186.23 29.1115 182.597 30.5488 178.311 30.5488C174.156 30.5488 170.576 29.1376 167.571 26.3152C164.565 23.4667 163.063 19.9779 163.063 15.8488C163.063 13.6536 163.442 11.5891 164.199 9.6552C164.591 8.60987 165.219 7.52533 166.081 6.4016C169.112 2.42933 173.202 0.443199 178.351 0.443199C182.61 0.443199 186.23 1.8936 189.209 4.7944C192.188 7.6952 193.678 11.2624 193.678 15.496ZM186.269 15.5352C186.269 13.2093 185.524 11.1971 184.035 9.4984C182.571 7.79973 180.69 6.9504 178.39 6.9504C176.064 6.9504 174.156 7.78667 172.667 9.4592C171.203 11.1056 170.471 13.0917 170.471 15.4176C170.471 17.7957 171.216 19.8341 172.706 21.5328C174.195 23.2053 176.116 24.0416 178.468 24.0416C180.742 24.0416 182.61 23.2053 184.074 21.5328C185.537 19.8341 186.269 17.8349 186.269 15.5352ZM213.693 23.336C213.693 25.6619 212.817 27.4781 211.066 28.7848C209.315 30.0915 207.238 30.7448 204.834 30.7448C202.455 30.7448 200.443 30.1176 198.797 28.8632C197.15 27.6088 196.21 25.8317 195.974 23.532H202.442C202.547 24.1853 202.808 24.6819 203.226 25.0216C203.671 25.3613 204.233 25.5312 204.912 25.5312C205.461 25.5312 205.97 25.3875 206.441 25.1C206.937 24.7864 207.186 24.3683 207.186 23.8456C207.186 23.6365 207.146 23.4405 207.068 23.2576C207.016 23.0747 206.924 22.9048 206.794 22.748C206.663 22.5912 206.532 22.4605 206.402 22.356C206.297 22.2515 206.127 22.1469 205.892 22.0424C205.657 21.9117 205.474 21.8203 205.343 21.768C205.239 21.7157 205.043 21.6373 204.755 21.5328C204.494 21.4283 204.324 21.3629 204.246 21.3368C202.991 20.9187 202.05 20.592 201.423 20.3568C197.974 19.1024 196.249 17.2077 196.249 14.6728C196.249 12.5037 197.085 10.7659 198.758 9.4592C200.456 8.15253 202.429 7.4992 204.677 7.4992C206.95 7.4992 208.858 8.0872 210.4 9.2632C211.942 10.4392 212.817 12.1379 213.026 14.3592H206.637C206.611 13.2616 205.931 12.7128 204.598 12.7128C204.128 12.7128 203.697 12.8435 203.305 13.1048C202.939 13.3661 202.756 13.7189 202.756 14.1632C202.756 14.6859 203.017 15.1301 203.54 15.496C204.089 15.8619 204.768 16.1493 205.578 16.3584C206.389 16.5413 207.264 16.8027 208.205 17.1424C209.172 17.4821 210.06 17.8741 210.87 18.3184C211.681 18.7365 212.347 19.3768 212.87 20.2392C213.418 21.1016 213.693 22.1339 213.693 23.336Z" fill="#6C6C6C"/>
</svg>
