<svg width="154" height="155" viewBox="0 0 154 155" fill="none" xmlns="http://www.w3.org/2000/svg">
<path d="M19.3927 78.6229C19.3927 43.4374 46.6952 19.5317 77.0739 19.5317C107.132 19.5317 134.755 42.9246 134.755 79.0074C138.6 81.1865 141.164 85.2883 141.164 90.0309V102.849C141.164 109.899 135.396 115.667 128.346 115.667H121.937V76.572C121.937 51.7691 101.877 31.7089 77.0739 31.7089C52.271 31.7089 32.2108 51.7691 32.2108 76.572V122.076H83.4829V134.894H32.2108C25.1609 134.894 19.3927 129.126 19.3927 122.076V114.257C15.6114 112.27 12.9837 108.361 12.9837 103.746V89.0055C12.9837 84.5192 15.6114 80.6097 19.3927 78.6229V78.6229Z" fill="#FFB800"/>
<path d="M96.3009 90.0309C92.7613 90.0309 89.8919 87.1615 89.8919 83.6219C89.8919 80.0823 92.7613 77.2129 96.3009 77.2129C99.8405 77.2129 102.71 80.0823 102.71 83.6219C102.71 87.1615 99.8405 90.0309 96.3009 90.0309Z" fill="#FFB800"/>
<path d="M57.8468 90.0309C54.3072 90.0309 51.4378 87.1615 51.4378 83.6219C51.4378 80.0823 54.3072 77.2129 57.8468 77.2129C61.3864 77.2129 64.2559 80.0823 64.2559 83.6219C64.2559 87.1615 61.3864 90.0309 57.8468 90.0309Z" fill="#FFB800"/>
<path d="M38.6196 70.9961C40.1478 61.9859 44.8145 53.8069 51.7936 47.9069C58.7728 42.0069 67.6143 38.7663 76.7532 38.7588C96.1726 38.7588 117.066 54.8454 115.4 80.0969C107.496 76.8629 100.516 71.7235 95.0815 65.1369C89.6468 58.5504 85.9263 50.7213 84.2518 42.3478C75.856 59.2036 58.6157 70.8039 38.6196 70.9961Z" fill="#FFB800"/>
</svg>
