<svg width="157" height="157" viewBox="0 0 157 157" fill="none" xmlns="http://www.w3.org/2000/svg">
<path d="M137.364 124.316V33.0519C137.364 29.5941 135.991 26.2779 133.546 23.8328C131.101 21.3878 127.784 20.0142 124.327 20.0142H33.0622C29.6044 20.0142 26.2881 21.3878 23.8431 23.8328C21.398 26.2779 20.0244 29.5941 20.0244 33.0519V124.316C20.0244 127.774 21.398 131.09 23.8431 133.535C26.2881 135.98 29.6044 137.354 33.0622 137.354H124.327C127.784 137.354 131.101 135.98 133.546 133.535C135.991 131.09 137.364 127.774 137.364 124.316ZM59.1377 117.797H46.1V78.6841H59.1377V117.797ZM85.2133 117.797H72.1755V46.0897H85.2133V117.797ZM111.289 117.797H98.251V65.6464H111.289V117.797Z" fill="#FFB800"/>
</svg>
