<svg width="124" height="124" viewBox="0 0 124 124" fill="none" xmlns="http://www.w3.org/2000/svg">
<path d="M0.863281 15.4495C0.863281 11.37 2.48384 7.45767 5.36846 4.57305C8.25308 1.68843 12.1655 0.0678711 16.2449 0.0678711H93.1531C97.2326 0.0678711 101.145 1.68843 104.03 4.57305C106.914 7.45767 108.535 11.37 108.535 15.4495V92.3577C108.535 96.4372 106.914 100.35 104.03 103.234C101.145 106.119 97.2326 107.739 93.1531 107.739H16.2449C12.1655 107.739 8.25308 106.119 5.36846 103.234C2.48384 100.35 0.863281 96.4372 0.863281 92.3577V15.4495ZM80.3095 35.6302C79.9293 35.2971 79.4873 35.0422 79.0086 34.8801C78.5299 34.718 78.024 34.6518 77.5197 34.6854C77.0154 34.719 76.5227 34.8516 76.0697 35.0758C75.6167 35.2999 75.2123 35.6112 74.8797 35.9917L50.669 63.6556L38.1945 51.1811C37.837 50.8235 37.4125 50.5399 36.9454 50.3464C36.4783 50.1529 35.9776 50.0533 35.472 50.0533C34.9663 50.0533 34.4657 50.1529 33.9985 50.3464C33.5314 50.5399 33.107 50.8235 32.7494 51.1811C32.3919 51.5386 32.1083 51.963 31.9148 52.4302C31.7213 52.8973 31.6217 53.398 31.6217 53.9036C31.6217 54.4092 31.7213 54.9099 31.9148 55.377C32.1083 55.8442 32.3919 56.2686 32.7494 56.6262L48.1311 72.0078C48.5038 72.38 48.9489 72.6716 49.439 72.8647C49.9291 73.0577 50.4535 73.148 50.9799 73.13C51.5063 73.112 52.0234 72.986 52.4991 72.7599C52.9748 72.5338 53.399 72.2123 53.7454 71.8155L80.6632 41.0523C81.3336 40.285 81.672 39.283 81.6042 38.2665C81.5364 37.2499 81.068 36.3017 80.3018 35.6302H80.3095ZM18.2984 115.43C19.649 117.77 21.5919 119.712 23.9316 121.062C26.2713 122.412 28.9253 123.122 31.6266 123.121H93.1531C101.312 123.121 109.137 119.88 114.906 114.111C120.675 108.341 123.916 100.517 123.916 92.3577V30.8312C123.916 28.1312 123.206 25.4788 121.856 23.1406C120.506 20.8023 118.564 18.8606 116.226 17.5107V92.3577C116.226 98.4769 113.795 104.345 109.468 108.672C105.141 112.999 99.2723 115.43 93.1531 115.43H18.3061H18.2984Z" fill="#FFB800"/>
</svg>
